<?xml version="1.0" encoding="UTF-8" standalone="no"?>
<!-- Created with Inkscape (http://www.inkscape.org/) -->

<svg
   xmlns:dc="http://purl.org/dc/elements/1.1/"
   xmlns:cc="http://creativecommons.org/ns#"
   xmlns:rdf="http://www.w3.org/1999/02/22-rdf-syntax-ns#"
   xmlns:svg="http://www.w3.org/2000/svg"
   xmlns="http://www.w3.org/2000/svg"
   xmlns:sodipodi="http://sodipodi.sourceforge.net/DTD/sodipodi-0.dtd"
   xmlns:inkscape="http://www.inkscape.org/namespaces/inkscape"
   width="609.59998mm"
   height="304.79999mm"
   viewBox="0 0 609.60001 304.80001"
   version="1.1"
   id="svg8"
   inkscape:version="0.92.2 (5c3e80d, 2017-08-06)"
   sodipodi:docname="Robotic Arm Part 2.svg">
  <defs
     id="defs2" />
  <sodipodi:namedview
     id="base"
     pagecolor="#ffffff"
     bordercolor="#666666"
     borderopacity="1.0"
     inkscape:pageopacity="0.0"
     inkscape:pageshadow="2"
     inkscape:zoom="0.8225"
     inkscape:cx="1402.8905"
     inkscape:cy="435.31981"
     inkscape:document-units="in"
     inkscape:current-layer="layer1"
     showgrid="true"
     units="mm"
     inkscape:snap-bbox="true"
     inkscape:bbox-nodes="true"
     inkscape:window-width="3200"
     inkscape:window-height="1668"
     inkscape:window-x="-16"
     inkscape:window-y="-16"
     inkscape:window-maximized="1"
     inkscape:bbox-paths="false"
     inkscape:snap-global="true"
     inkscape:snap-nodes="true"
     inkscape:snap-others="true"
     gridtolerance="4"
     inkscape:measure-start="1384.8,789.362"
     inkscape:measure-end="1410.03,745.289">
    <inkscape:grid
       type="xygrid"
       id="grid4504"
       units="mm"
       spacingx="5.0000001"
       spacingy="5.0000001" />
  </sodipodi:namedview>
  <metadata
     id="metadata5">
    <rdf:RDF>
      <cc:Work
         rdf:about="">
        <dc:format>image/svg+xml</dc:format>
        <dc:type
           rdf:resource="http://purl.org/dc/dcmitype/StillImage" />
        <dc:title />
      </cc:Work>
    </rdf:RDF>
  </metadata>
  <g
     inkscape:label="Layer 1"
     inkscape:groupmode="layer"
     id="layer1"
     transform="translate(0,7.8000168)">
    <path
       style="fill:#aade87;stroke:#ff0000;stroke-width:0.0254;stroke-miterlimit:4;stroke-dasharray:none"
       d="m 15.012607,-3.012309 c -5.5400002,0 -9.9999069,4.4599068 -9.9999069,9.9999067 V 86.987368 c 0,5.54 4.4599067,9.999906 9.9999069,9.999906 h 80.000285 c 5.539998,0 9.999908,-4.459906 9.999908,-9.999906 V 6.9875977 c 0,-5.5399999 -4.45991,-9.9999067 -9.999908,-9.9999067 z M 55.012749,43.43912 a 3.5481975,3.5481975 0 0 1 3.548105,3.548105 3.5481975,3.5481975 0 0 1 -3.548105,3.548621 3.5481975,3.5481975 0 0 1 -3.548102,-3.548621 3.5481975,3.5481975 0 0 1 3.548102,-3.548105 z"
       id="rect5057"
       inkscape:connector-curvature="0" />
    <path
       style="fill:#55ff99;stroke:#ff0000;stroke-width:0.0254;stroke-miterlimit:4;stroke-dasharray:none"
       d="m 125.01261,-1.3913836 c -5.54,0 -9.99991,4.4599068 -9.99991,9.9999067 V 88.608294 c 0,5.539999 4.45991,9.999906 9.99991,9.999906 h 79.99977 c 5.54,0 10.00042,-4.459907 10.00042,-9.999906 V 8.6085231 c 0,-5.5399999 -4.46042,-9.9999067 -10.00042,-9.9999067 z m 40.00014,41.7814296 a 17.228405,8.2184049 0 0 1 17.22841,8.218104 17.228405,8.2184049 0 0 1 -17.22841,8.21862 17.228405,8.2184049 0 0 1 -17.22841,-8.21862 17.228405,8.2184049 0 0 1 17.22841,-8.218104 z"
       id="rect5079"
       inkscape:connector-curvature="0" />
    <path
       style="fill:#80ffe6;stroke:#ff0000;stroke-width:0.01162279;stroke-miterlimit:4;stroke-dasharray:none"
       d="M 223.01426,-2.2168731 V 61.555981 h 3.175 v 3.175 h -3.175 v 6.379972 h 3.175 v 3.175 h -3.175 v 23.485906 h 21.98833 V 74.285953 h -3.175 v -3.175 h 3.175 v -6.379972 h -3.175 v -3.175 h 3.175 V -2.2168731 Z m 4.89428,4.9945273 h 12.19977 V 35.277481 h -12.19977 z m -4.89117,49.2223198 h 3.175 v 3.175 h -3.175 z m 18.80763,0 H 245 v 3.175 h -3.175 z"
       id="rect5102"
       inkscape:connector-curvature="0" />
    <path
       style="fill:#80ffe6;stroke:#ff0000;stroke-width:0.01162279;stroke-miterlimit:4;stroke-dasharray:none"
       d="M 253.01428,-2.2168749 V 61.555978 h 3.175 v 3.175 h -3.175 v 6.379972 h 3.175 v 3.175 h -3.175 v 23.485904 h 21.9883 V 74.28595 h -3.175 v -3.175 h 3.175 v -6.379972 h -3.175 v -3.175 h 3.175 V -2.2168749 Z m 4.89426,4.9945273 h 12.19978 V 35.277479 h -12.19978 z m -4.89117,49.2223216 h 3.175 v 3.175 h -3.175 z m 18.80764,0 h 3.175 v 3.175 h -3.175 z"
       id="path5212"
       inkscape:connector-curvature="0" />
    <path
       style="fill:#55ffdd;stroke:#ff0000;stroke-width:0.0254;stroke-miterlimit:4;stroke-dasharray:none"
       d="M 285.02586,-2.3487421 V 74.771099 H 298.3258 V 64.301454 h 3.175 v -3.175 h -3.175 v -6.400642 h 3.175 v -3.175 h -3.175 v -6.375839 h 3.175 v -3.175 h -3.175 V -2.3487421 Z m -3.20085,44.3487151 v 3.175 h 3.175 v -3.175 z m 0,9.550839 v 3.175 h 3.175 v -3.175 z m 0,9.575642 v 3.175 h 3.175 v -3.175 z"
       id="rect5216"
       inkscape:connector-curvature="0" />
    <rect
       style="fill:#5fd38d;stroke:#ff0000;stroke-width:0.0254;stroke-miterlimit:4;stroke-dasharray:none"
       id="rect5220"
       width="3.1750002"
       height="3.1750002"
       x="433.86798"
       y="47.012672" />
    <path
       inkscape:connector-curvature="0"
       id="path5246"
       d="M 310.02586,-2.3487426 V 74.771099 H 323.3258 V 64.301454 h 3.175 v -3.175 h -3.175 v -6.400642 h 3.175 v -3.175 h -3.175 v -6.375839 h 3.175 v -3.175 h -3.175 V -2.3487426 Z m -3.20085,44.3487156 v 3.175 h 3.175 v -3.175 z m 0,9.550839 v 3.175 h 3.175 v -3.175 z m 0,9.575642 v 3.175 h 3.175 v -3.175 z"
       style="fill:#55ffdd;stroke:#ff0000;stroke-width:0.0254;stroke-miterlimit:4;stroke-dasharray:none" />
    <path
       style="fill:#5fd38d;stroke:#ff0000;stroke-width:0.0254;stroke-miterlimit:4;stroke-dasharray:none"
       d="M 365.01271,-2.9873275 V 97.01277 h 22.0002 V -2.9873275 Z m 11.00036,15.0223405 a 3.5400576,3.5400576 0 0 1 3.53983,3.54036 3.5400576,3.5400576 0 0 1 -3.53983,3.53983 3.5400576,3.5400576 0 0 1 -3.54036,-3.53983 3.5400576,3.5400576 0 0 1 3.54036,-3.54036 z m 0,62.87472 a 3.5400576,3.5400576 0 0 1 3.53983,3.54035 3.5400576,3.5400576 0 0 1 -3.53983,3.53984 3.5400576,3.5400576 0 0 1 -3.54036,-3.53984 3.5400576,3.5400576 0 0 1 3.54036,-3.54035 z"
       id="rect5248"
       inkscape:connector-curvature="0" />
    <rect
       style="fill:#66ff00;stroke:#ff0000;stroke-width:0.0254;stroke-miterlimit:4;stroke-dasharray:none"
       id="rect5260"
       width="0"
       height="60.732738"
       x="95.989563"
       y="77.952705" />
    <path
       style="fill:#afe9af;stroke:#ff0000;stroke-width:0.0254;stroke-miterlimit:4;stroke-dasharray:none"
       d="m 347.32921,80.400464 h -62.99977 v 9.42528 h 12.96975 v 3.14968 h -12.96975 v 9.425246 h 62.99977 z m -5.00021,4.90048 v 12.19978 h -23.49986 v -12.19978 z m -37.32899,-2.0996 v 2.59982 h -2.59984 v -2.59982 z m 0,13.79863 v 2.59985 h -2.59984 v -2.59985 z m -13.07517,-13.82395 v 2.59982 H 289.325 v -2.59982 z m 0,13.84927 v 2.59985 H 289.325 v -2.59985 z"
       id="rect5284"
       inkscape:connector-curvature="0" />
    <path
       inkscape:connector-curvature="0"
       id="path5325"
       d="M 335.80065,-2.9290766 V 60.070703 h 9.42528 v -12.96975 h 3.14968 v 12.96975 h 9.42525 V -2.9290766 Z m 4.90048,5.00022 h 12.19978 V 25.571003 h -12.19978 z m -2.0996,37.3289796 h 2.59983 v 2.59985 h -2.59983 z m 13.79863,0 h 2.59985 v 2.59985 h -2.59985 z m -13.82395,13.07518 h 2.59983 v 2.59984 h -2.59983 z m 13.84927,0 h 2.59985 v 2.59984 h -2.59985 z"
       style="fill:#afe9af;stroke:#ff0000;stroke-width:0.0254;stroke-miterlimit:4;stroke-dasharray:none" />
    <rect
       style="fill:#b3ff80;stroke:#ff0000;stroke-width:0.0254;stroke-miterlimit:4;stroke-dasharray:none"
       id="rect5327"
       width="340"
       height="120"
       x="7.4316478"
       y="109.7355" />
  </g>
</svg>
