<?xml version="1.0" encoding="UTF-8" standalone="no"?>
<!-- Created with Inkscape (http://www.inkscape.org/) -->

<svg
   xmlns:dc="http://purl.org/dc/elements/1.1/"
   xmlns:cc="http://creativecommons.org/ns#"
   xmlns:rdf="http://www.w3.org/1999/02/22-rdf-syntax-ns#"
   xmlns:svg="http://www.w3.org/2000/svg"
   xmlns="http://www.w3.org/2000/svg"
   xmlns:sodipodi="http://sodipodi.sourceforge.net/DTD/sodipodi-0.dtd"
   xmlns:inkscape="http://www.inkscape.org/namespaces/inkscape"
   width="609.59998mm"
   height="304.79999mm"
   viewBox="0 0 609.60001 304.80001"
   version="1.1"
   id="svg8"
   inkscape:version="0.92.2 (5c3e80d, 2017-08-06)"
   sodipodi:docname="Robotic Arm Part 2.svg">
  <defs
     id="defs2" />
  <sodipodi:namedview
     id="base"
     pagecolor="#ffffff"
     bordercolor="#666666"
     borderopacity="1.0"
     inkscape:pageopacity="0.0"
     inkscape:pageshadow="2"
     inkscape:zoom="0.41125"
     inkscape:cx="964.30801"
     inkscape:cy="343.40312"
     inkscape:document-units="in"
     inkscape:current-layer="layer1"
     showgrid="true"
     units="mm"
     inkscape:snap-bbox="true"
     inkscape:bbox-nodes="true"
     inkscape:window-width="3200"
     inkscape:window-height="1668"
     inkscape:window-x="-16"
     inkscape:window-y="-16"
     inkscape:window-maximized="1"
     inkscape:bbox-paths="false"
     inkscape:snap-global="true"
     inkscape:snap-nodes="true"
     inkscape:snap-others="true"
     gridtolerance="4"
     inkscape:measure-start="1384.8,789.362"
     inkscape:measure-end="1410.03,745.289">
    <inkscape:grid
       type="xygrid"
       id="grid4504"
       units="mm"
       spacingx="5.0000001"
       spacingy="5.0000001" />
  </sodipodi:namedview>
  <metadata
     id="metadata5">
    <rdf:RDF>
      <cc:Work
         rdf:about="">
        <dc:format>image/svg+xml</dc:format>
        <dc:type
           rdf:resource="http://purl.org/dc/dcmitype/StillImage" />
        <dc:title />
      </cc:Work>
    </rdf:RDF>
  </metadata>
  <g
     inkscape:label="Layer 1"
     inkscape:groupmode="layer"
     id="layer1"
     transform="translate(0,7.8000168)">
    <path
       style="fill:#aade87;stroke:#ff0000;stroke-width:0;stroke-miterlimit:4;stroke-dasharray:none"
       d="m 512.72942,102.00039 c -5.54,0 -9.9999,4.45991 -9.9999,9.99991 v 79.99977 c 0,5.54 4.4599,9.99991 9.9999,9.99991 h 80.00029 c 5.54,0 9.99991,-4.45991 9.99991,-9.99991 V 112.0003 c 0,-5.54 -4.45991,-9.99991 -9.99991,-9.99991 z m 40.00015,46.45143 a 3.5481975,3.5481975 0 0 1 3.5481,3.54811 3.5481975,3.5481975 0 0 1 -3.5481,3.54862 3.5481975,3.5481975 0 0 1 -3.54811,-3.54862 3.5481975,3.5481975 0 0 1 3.54811,-3.54811 z"
       id="rect5057"
       inkscape:connector-curvature="0" />
    <path
       style="fill:#55ff99;stroke:#ff0000;stroke-width:0;stroke-miterlimit:4;stroke-dasharray:none"
       d="m 513.20149,-3.000027 c -5.54,0 -9.99991,4.45991 -9.99991,9.99991 v 79.99977 c 0,5.54 4.45991,9.9999 9.99991,9.9999 h 79.99977 c 5.54,0 10.00042,-4.4599 10.00042,-9.9999 V 6.999883 c 0,-5.54 -4.46042,-9.99991 -10.00042,-9.99991 z m 40.00014,41.78143 a 17.228405,8.2184049 0 0 1 17.22841,8.2181 17.228405,8.2184049 0 0 1 -17.22841,8.21862 17.228405,8.2184049 0 0 1 -17.22841,-8.21862 17.228405,8.2184049 0 0 1 17.22841,-8.2181 z"
       id="rect5079"
       inkscape:connector-curvature="0" />
    <path
       style="fill:#80ffe6;stroke:#ff0000;stroke-width:0;stroke-miterlimit:4;stroke-dasharray:none"
       d="m 381.18668,80.052125 v 63.772855 h 3.175 v 3.175 h -3.175 v 6.37998 h 3.175 v 3.175 h -3.175 v 23.4859 h 21.98833 v -23.4859 h -3.175 v -3.175 h 3.175 v -6.37998 h -3.175 v -3.175 h 3.175 V 80.052125 Z m 4.89428,4.99453 h 12.19977 v 32.499825 h -12.19977 z m -4.89117,49.222325 h 3.175 v 3.175 h -3.175 z m 18.80763,0 h 3.175 v 3.175 h -3.175 z"
       id="rect5102"
       inkscape:connector-curvature="0" />
    <path
       style="fill:#80ffe6;stroke:#ff0000;stroke-width:0;stroke-miterlimit:4;stroke-dasharray:none"
       d="M 466.18928,-2.2168756 V 61.555978 h 3.175 v 3.175 h -3.175 v 6.379972 h 3.175 v 3.175 h -3.175 v 23.485904 h 21.9883 V 74.28595 h -3.175 v -3.175 h 3.175 v -6.379972 h -3.175 v -3.175 h 3.175 V -2.2168756 Z m 4.89426,4.994528 h 12.19978 V 35.277479 h -12.19978 z m -4.89117,49.2223216 h 3.175 v 3.175 h -3.175 z m 18.80764,0 h 3.175 v 3.175 h -3.175 z"
       id="path5212"
       inkscape:connector-curvature="0" />
    <path
       style="fill:#55ffdd;stroke:#ff0000;stroke-width:0;stroke-miterlimit:4;stroke-dasharray:none"
       d="m 445.02586,104.92542 v 77.11985 h 13.29994 v -10.46964 h 3.175 v -3.175 h -3.175 v -6.40065 h 3.175 v -3.175 h -3.175 v -6.37584 h 3.175 v -3.175 h -3.175 v -44.34872 z m -3.20085,44.34872 v 3.175 h 3.175 v -3.175 z m 0,9.55084 v 3.175 h 3.175 v -3.175 z m 0,9.57565 v 3.175 h 3.175 v -3.175 z"
       id="rect5216"
       inkscape:connector-curvature="0" />
    <rect
       style="fill:#5fd38d;stroke:#ff0000;stroke-width:0;stroke-miterlimit:4;stroke-dasharray:none"
       id="rect5220"
       width="3.1750002"
       height="3.1750002"
       x="393.40775"
       y="250.69504" />
    <path
       inkscape:connector-curvature="0"
       id="path5246"
       d="m 470.02586,108.10042 v 77.11985 h 13.29994 v -10.46965 h 3.175 v -3.175 h -3.175 v -6.40064 h 3.175 v -3.175 h -3.175 v -6.37583 h 3.175 v -3.175 h -3.175 v -44.34873 z m -3.20085,44.34873 v 3.175 h 3.175 v -3.175 z m 0,9.55083 v 3.175 h 3.175 v -3.175 z m 0,9.57564 v 3.175 h 3.175 v -3.175 z"
       style="fill:#55ffdd;stroke:#ff0000;stroke-width:0;stroke-miterlimit:4;stroke-dasharray:none" />
    <path
       style="fill:#5fd38d;stroke:#ff0000;stroke-width:0;stroke-miterlimit:4;stroke-dasharray:none"
       d="M 352.99981,-3.000123 V 96.999974 h 22.0002 V -3.000123 Z m 11.00036,15.02234 a 3.5400576,3.5400576 0 0 1 3.53983,3.54036 3.5400576,3.5400576 0 0 1 -3.53983,3.53983 3.5400576,3.5400576 0 0 1 -3.54036,-3.53983 3.5400576,3.5400576 0 0 1 3.54036,-3.54036 z m 0,62.87472 a 3.5400576,3.5400576 0 0 1 3.53983,3.54035 3.5400576,3.5400576 0 0 1 -3.53983,3.53984 3.5400576,3.5400576 0 0 1 -3.54036,-3.53984 3.5400576,3.5400576 0 0 1 3.54036,-3.54035 z"
       id="rect5248"
       inkscape:connector-curvature="0" />
    <rect
       style="fill:#66ff00;stroke:#ff0000;stroke-width:0.0254;stroke-miterlimit:4;stroke-dasharray:none"
       id="rect5260"
       width="0"
       height="60.732738"
       x="95.989563"
       y="77.952705" />
    <path
       style="fill:#afe9af;stroke:#ff0000;stroke-width:0;stroke-miterlimit:4;stroke-dasharray:none"
       d="m 353.4005,102.07095 v 62.99977 h 9.42528 v -12.96975 h 3.14968 v 12.96975 h 9.42524 v -62.99977 z m 4.90048,5.00021 h 12.19978 v 23.49986 h -12.19978 z m -2.0996,37.32898 h 2.59982 v 2.59984 h -2.59982 z m 13.79863,0 h 2.59985 v 2.59984 h -2.59985 z m -13.82395,13.07518 h 2.59982 v 2.59984 h -2.59982 z m 13.84927,0 h 2.59985 v 2.59984 h -2.59985 z"
       id="rect5284"
       inkscape:connector-curvature="0" />
    <path
       inkscape:connector-curvature="0"
       id="path5325"
       d="m 409.5993,102.07092 v 62.99979 h 9.42528 v -12.96975 h 3.14968 v 12.96975 h 9.42525 v -62.99979 z m 4.90048,5.00022 h 12.19978 v 23.49987 h -12.19978 z m -2.0996,37.32899 h 2.59983 v 2.59985 h -2.59983 z m 13.79863,0 h 2.59985 v 2.59985 h -2.59985 z m -13.82395,13.07518 h 2.59983 v 2.59984 h -2.59983 z m 13.84927,0 h 2.59985 v 2.59984 h -2.59985 z"
       style="fill:#afe9af;stroke:#ff0000;stroke-width:0;stroke-miterlimit:4;stroke-dasharray:none" />
    <rect
       style="fill:#a7ff88;fill-opacity:0.81655573;stroke:#ff0000;stroke-width:0;stroke-miterlimit:4;stroke-dasharray:none"
       id="rect5327"
       width="340"
       height="120"
       x="5.0000138"
       y="-3.0000274" />
    <g
       id="g1484"
       transform="translate(-368.29975,13.661056)">
      <rect
         ry="10.008391"
         style="fill:#a7ff88;fill-opacity:0.81655573;stroke:#ff0000;stroke-width:0;stroke-miterlimit:4;stroke-dasharray:none"
         id="rect1404"
         width="340"
         height="120"
         x="375.00003"
         y="111.99998" />
      <rect
         ry="11.145708"
         y="122.08887"
         x="384.9873"
         height="100"
         width="100"
         id="rect1406"
         style="opacity:0.93999999;fill:#2affd5;fill-opacity:0.81655573;stroke:#ff0000;stroke-width:0;stroke-miterlimit:4;stroke-dasharray:none" />
      <rect
         style="opacity:0.93999999;fill:#2affd5;fill-opacity:0.81655573;stroke:#ff0000;stroke-width:0;stroke-miterlimit:4;stroke-dasharray:none"
         id="rect1418"
         width="100"
         height="100"
         x="604.9873"
         y="122.01267"
         ry="11.145708" />
      <rect
         ry="11.145708"
         y="121.99996"
         x="495"
         height="100"
         width="100"
         id="rect1426"
         style="opacity:0.93999999;fill:#2affd5;fill-opacity:0.81655573;stroke:#ff0000;stroke-width:0;stroke-miterlimit:4;stroke-dasharray:none" />
      <path
         inkscape:connector-curvature="0"
         id="path1435"
         d="m 434.9872,163.89557 a 8.1932859,8.1932859 0 0 0 -8.09099,6.94325 h 1.40354 v 2.5001 h -1.39991 a 8.1932859,8.1932859 0 0 0 8.08736,6.94325 8.1932859,8.1932859 0 0 0 8.1933,-8.1933 8.1932859,8.1932859 0 0 0 -8.1933,-8.1933 z m -8.18709,8.01965 a 8.1932859,8.1932859 0 0 0 -0.006,0.17365 8.1932859,8.1932859 0 0 0 0.006,0.12401 z"
         style="opacity:0.93999999;fill:#ff6600;fill-opacity:0.81655573;stroke:#ff0000;stroke-width:0;stroke-miterlimit:4;stroke-dasharray:none" />
    </g>
    <path
       style="opacity:0.93999999;fill:#c83737;fill-opacity:0.81655573;stroke:#ff0000;stroke-width:0;stroke-miterlimit:4;stroke-dasharray:none"
       d="M 380.68762,-2.4435901 V 76.556241 h 21.9997 V -2.4435901 Z m 10.99984,5.0002121 a 8.1932859,8.1932859 0 0 1 8.1933,8.1933 8.1932859,8.1932859 0 0 1 -8.1933,8.193297 8.1932859,8.1932859 0 0 1 -8.08736,-6.943246 h 1.39991 V 9.4998683 h -1.40351 a 8.1932859,8.1932859 0 0 1 8.09096,-6.9432463 z m -8.18708,8.019665 v 0.297656 a 8.1932859,8.1932859 0 0 1 -0.006,-0.124021 8.1932859,8.1932859 0 0 1 0.006,-0.173635 z"
       id="rect1442"
       inkscape:connector-curvature="0" />
    <path
       style="opacity:0.93999999;fill:#800080;fill-opacity:0.81655573;stroke:#ff0000;stroke-width:0;stroke-miterlimit:4;stroke-dasharray:none"
       d="M 438.0003,-3.0000275 V 96.999555 h 21.99971 V -3.0000275 Z m 10.99984,4.9996948 a 8.1932859,8.1932859 0 0 1 8.1933,8.1932987 8.1932859,8.1932859 0 0 1 -8.1933,8.193299 8.1932859,8.1932859 0 0 1 -8.08736,-6.943246 h 1.39994 V 8.9429131 h -1.40354 a 8.1932859,8.1932859 0 0 1 8.09096,-6.9432458 z m -8.18708,8.0196657 v 0.297656 a 8.1932859,8.1932859 0 0 1 -0.006,-0.124023 8.1932859,8.1932859 0 0 1 0.006,-0.173633 z m 8.18708,65.59393 a 8.1932859,8.1932859 0 0 1 8.1933,8.193299 8.1932859,8.1932859 0 0 1 -8.1933,8.1933 8.1932859,8.1932859 0 0 1 -8.09096,-6.943247 h 1.40354 v -2.500106 h -1.39994 a 8.1932859,8.1932859 0 0 1 8.08736,-6.943246 z m -8.18708,8.069276 v 0.297656 a 8.1932859,8.1932859 0 0 1 -0.006,-0.173633 8.1932859,8.1932859 0 0 1 0.006,-0.124023 z"
       id="rect1453"
       inkscape:connector-curvature="0" />
    <path
       style="opacity:0.93999999;fill:#ffd42a;fill-opacity:0.81655573;stroke:#ff0000;stroke-width:0;stroke-miterlimit:4;stroke-dasharray:none"
       d="M 410.00001,-3.0001248 V 96.999974 H 431.9997 V -3.0001248 Z m 10.99984,15.0001188 a 2.7500001,2.7499999 0 0 1 2.74971,2.750219 2.7500001,2.7499999 0 0 1 -2.74971,2.749704 2.7500001,2.7499999 0 0 1 -2.75021,-2.749704 2.7500001,2.7499999 0 0 1 2.75021,-2.750219 z m 0,64.499941 a 2.7500001,2.7499999 0 0 1 2.74971,2.749701 2.7500001,2.7499999 0 0 1 -2.74971,2.75022 2.7500001,2.7499999 0 0 1 -2.75021,-2.75022 2.7500001,2.7499999 0 0 1 2.75021,-2.749701 z"
       id="rect1464"
       inkscape:connector-curvature="0" />
  </g>
</svg>
